<svg width="10" height="10" viewBox="0 0 10 10" fill="none" xmlns="http://www.w3.org/2000/svg">
<path d="M5.00003 3.28748L4.55419 4.06248C4.45419 4.23331 4.53753 4.37498 4.73336 4.37498H5.26253C5.46253 4.37498 5.54169 4.51664 5.44169 4.68748L5.00003 5.46248" stroke="white" stroke-width="0.5" stroke-linecap="round" stroke-linejoin="round"/>
<path d="M3.45836 7.5167V7.03336C2.50002 6.4542 1.71252 5.32503 1.71252 4.12503C1.71252 2.06253 3.60836 0.445866 5.75002 0.912532C6.69169 1.12087 7.51669 1.74587 7.94586 2.60837C8.81669 4.35837 7.90002 6.2167 6.55419 7.0292V7.51253C6.55419 7.63337 6.60002 7.91253 6.15419 7.91253H3.85836C3.40002 7.9167 3.45836 7.73753 3.45836 7.5167Z" stroke="white" stroke-width="0.5" stroke-linecap="round" stroke-linejoin="round"/>
<path d="M3.54169 9.16663C4.49585 8.89579 5.50419 8.89579 6.45835 9.16663" stroke="white" stroke-width="0.5" stroke-linecap="round" stroke-linejoin="round"/>
</svg>
