<svg width="18" height="18" viewBox="0 0 18 18" fill="none" xmlns="http://www.w3.org/2000/svg">
<path d="M8.99998 5.91748L8.19748 7.31248C8.01748 7.61998 8.16748 7.87498 8.51998 7.87498H9.47248C9.83248 7.87498 9.97498 8.12998 9.79498 8.43748L8.99998 9.83248" stroke="#755AE2" stroke-width="1.5" stroke-linecap="round" stroke-linejoin="round"/>
<path d="M6.22502 13.53V12.66C4.50002 11.6175 3.08252 9.58501 3.08252 7.42501C3.08252 3.71251 6.49502 0.80251 10.35 1.64251C12.045 2.01751 13.53 3.14251 14.3025 4.69501C15.87 7.84501 14.22 11.19 11.7975 12.6525V13.5225C11.7975 13.74 11.88 14.2425 11.0775 14.2425H6.94502C6.12002 14.25 6.22502 13.9275 6.22502 13.53Z" stroke="#755AE2" stroke-width="1.5" stroke-linecap="round" stroke-linejoin="round"/>
<path d="M6.375 16.5C8.0925 16.0125 9.9075 16.0125 11.625 16.5" stroke="#755AE2" stroke-width="1.5" stroke-linecap="round" stroke-linejoin="round"/>
</svg>
