<svg width="10" height="10" viewBox="0 0 10 10" fill="none" xmlns="http://www.w3.org/2000/svg">
<path d="M5 8.22921C3.45 8.22921 2.1875 6.96671 2.1875 5.41671V3.33337C2.1875 1.78337 3.45 0.520874 5 0.520874C6.55 0.520874 7.8125 1.78337 7.8125 3.33337V5.41671C7.8125 6.96671 6.55 8.22921 5 8.22921ZM5 1.14587C3.79583 1.14587 2.8125 2.12504 2.8125 3.33337V5.41671C2.8125 6.62504 3.79583 7.60421 5 7.60421C6.20417 7.60421 7.1875 6.62504 7.1875 5.41671V3.33337C7.1875 2.12504 6.20417 1.14587 5 1.14587Z" fill="white"/>
<path d="M5 9.47921C2.75833 9.47921 0.9375 7.65837 0.9375 5.41671V4.58337C0.9375 4.41254 1.07917 4.27087 1.25 4.27087C1.42083 4.27087 1.5625 4.41254 1.5625 4.58337V5.41671C1.5625 7.31254 3.10417 8.85421 5 8.85421C6.89583 8.85421 8.4375 7.31254 8.4375 5.41671V4.58337C8.4375 4.41254 8.57917 4.27087 8.75 4.27087C8.92083 4.27087 9.0625 4.41254 9.0625 4.58337V5.41671C9.0625 7.65837 7.24167 9.47921 5 9.47921Z" fill="white"/>
<path d="M6.08753 3.42912C6.0542 3.42912 6.0167 3.42495 5.9792 3.41245C5.30836 3.17078 4.57086 3.17078 3.90003 3.41245C3.7417 3.47078 3.56253 3.38745 3.5042 3.22495C3.44586 3.06245 3.5292 2.88328 3.6917 2.82495C4.50003 2.53328 5.38753 2.53328 6.19586 2.82495C6.35836 2.88328 6.4417 3.06245 6.38336 3.22495C6.33753 3.35412 6.2167 3.42912 6.08753 3.42912Z" fill="white"/>
<path d="M5.70834 4.67912C5.68334 4.67912 5.65417 4.67495 5.62501 4.66662C5.17917 4.54578 4.70834 4.54578 4.26251 4.66662C4.09167 4.71245 3.92501 4.61245 3.87917 4.44578C3.83334 4.27912 3.93334 4.10828 4.10001 4.06245C4.65417 3.91245 5.23751 3.91245 5.79167 4.06245C5.95834 4.10828 6.05834 4.27912 6.01251 4.44578C5.97084 4.59162 5.84584 4.67912 5.70834 4.67912Z" fill="white"/>
</svg>
